<svg xmlns="http://www.w3.org/2000/svg" width="260" height="260" fill="none"><rect width="260" height="260" fill="#0F172A" rx="20"/><path fill="#D7DDEA" d="M60.22 54 54 60.22c23.806 23.805 35.146 47.038 35.157 69.746.01 22.707-11.306 45.939-35.087 69.744l-.07.068L60.22 206l.07-.07c23.804-23.781 47.036-35.099 69.743-35.087 22.708.011 45.941 11.351 69.747 35.156l6.22-6.22c-23.817-23.817-35.157-47.061-35.157-69.779 0-22.719 11.34-45.963 35.157-69.78L199.78 54C175.963 77.817 152.719 89.157 130 89.157S84.037 77.817 60.22 54Z"/></svg>