<svg width="672" height="153" viewBox="0 0 672 153" fill="none" xmlns="http://www.w3.org/2000/svg">
<path d="M58.0752 76.153V56.9192H47.0577C34.9198 56.9192 27.6371 61.5876 22.9686 73.5387V56.9192H0V151.035H22.9686V106.591C22.9686 88.6644 28.7575 76.153 43.323 76.153H58.0752Z" fill="#D7DDEA"/>
<path d="M132.636 119.663C130.208 128.626 122.552 133.481 110.787 133.481C96.222 133.481 86.5117 123.771 84.8311 108.645H154.297C154.484 106.778 154.671 103.977 154.671 100.802C154.671 78.3939 140.479 55.4252 108.92 55.4252C78.1085 55.4252 62.7961 78.7674 62.7961 103.603C62.7961 128.253 79.9759 152.528 110.787 152.528C133.943 152.528 151.496 139.644 155.044 119.663H132.636ZM108.92 72.605C122.552 72.605 130.768 81.5684 131.702 93.5196H85.3913C87.8188 79.3276 96.0353 72.605 108.92 72.605Z" fill="#D7DDEA"/>
<path d="M208.241 55.4252C183.778 55.4252 167.906 69.9907 166.785 88.6644H187.326C187.7 80.2613 194.982 72.605 207.12 72.605C219.258 72.605 226.354 79.1408 226.354 88.2909C226.354 92.0257 224.113 94.64 219.445 94.64H202.078C180.977 94.64 166.785 106.031 166.785 124.331C166.785 140.577 179.483 152.528 198.157 152.528C211.602 152.528 222.433 146.366 226.354 137.029V151.035H248.949V90.5318C248.949 69.2438 232.143 55.4252 208.241 55.4252ZM203.572 135.535C194.982 135.535 189.007 130.68 189.007 123.397C189.007 115.181 195.543 109.766 205.253 109.766H226.354V111.26C226.354 125.452 217.951 135.535 203.572 135.535Z" fill="#D7DDEA"/>
<path d="M267.433 151.035H290.215V16.584H267.433V151.035Z" fill="#D7DDEA"/>
<path d="M379.253 151.035H402.221V56.9192H379.253V151.035Z" fill="#D7DDEA"/>
<path d="M422.837 151.035H445.805V97.0676C445.805 83.8093 453.462 75.0326 465.6 75.0326C476.617 75.0326 483.526 83.8093 483.526 97.0676V151.035H506.308V97.0676C506.308 83.8093 513.964 75.0326 526.289 75.0326C537.307 75.0326 544.216 83.8093 544.216 97.0676V151.035H566.998V90.1583C566.998 70.1775 553.926 55.4252 533.572 55.4252C518.633 55.4252 506.682 63.6417 502.387 73.352C498.279 61.7743 488.008 55.4252 473.069 55.4252C459.811 55.4252 450.474 62.1478 445.805 71.6714V56.9192H422.837V151.035Z" fill="#D7DDEA"/>
<path d="M649.592 119.663C647.164 128.626 639.508 133.481 627.743 133.481C613.178 133.481 603.468 123.771 601.787 108.645H671.253C671.44 106.778 671.627 103.977 671.627 100.802C671.627 78.3939 657.435 55.4252 625.876 55.4252C595.064 55.4252 579.752 78.7674 579.752 103.603C579.752 128.253 596.932 152.528 627.743 152.528C650.899 152.528 668.452 139.644 672 119.663H649.592ZM625.876 72.605C639.508 72.605 647.724 81.5684 648.658 93.5196H602.347C604.775 79.3276 612.991 72.605 625.876 72.605Z" fill="#D7DDEA"/>
<path d="M311.935 26.0714V55.0262V74.647V117.508C311.935 138.843 325.65 151.035 346.604 151.035H362.034V131.223H349.271C340.508 131.223 335.365 126.27 335.365 116.555V74.647H362.034V55.0262H335.365V26.0714H311.935Z" fill="#D7DDEA"/>
<path d="M371.724 5.17692e-06L370.033 1.69037C376.503 8.15995 379.585 14.4739 379.588 20.6451C379.591 26.8162 376.515 33.1298 370.052 39.5991L370.033 39.6178L371.723 41.3087L371.743 41.2893C378.212 34.8265 384.525 31.751 390.696 31.754C396.868 31.757 403.182 34.8389 409.651 41.3084L411.342 39.6181C404.869 33.1453 401.787 26.8284 401.787 20.6542C401.787 14.48 404.869 8.1631 411.342 1.69037L409.651 0C403.179 6.47273 396.862 9.55443 390.687 9.55443C384.513 9.55443 378.196 6.47273 371.724 5.17692e-06Z" fill="#EC4899"/>
</svg>
