<svg width="680" height="161" viewBox="0 0 680 161" fill="none" xmlns="http://www.w3.org/2000/svg">
<g filter="url(#filter0_d_134_72)">
<path d="M62.0752 76.153V56.9192H51.0577C38.9198 56.9192 31.6371 61.5876 26.9686 73.5387V56.9192H4V151.035H26.9686V106.591C26.9686 88.6644 32.7575 76.153 47.323 76.153H62.0752Z" fill="#D7DDEA"/>
<path d="M136.636 119.663C134.208 128.626 126.552 133.481 114.787 133.481C100.222 133.481 90.5117 123.771 88.8311 108.645H158.297C158.484 106.778 158.671 103.977 158.671 100.802C158.671 78.3939 144.479 55.4252 112.92 55.4252C82.1085 55.4252 66.7961 78.7674 66.7961 103.603C66.7961 128.253 83.9759 152.528 114.787 152.528C137.943 152.528 155.496 139.644 159.044 119.663H136.636ZM112.92 72.605C126.552 72.605 134.768 81.5684 135.702 93.5196H89.3913C91.8188 79.3276 100.035 72.605 112.92 72.605Z" fill="#D7DDEA"/>
<path d="M212.241 55.4252C187.778 55.4252 171.906 69.9907 170.785 88.6644H191.326C191.7 80.2613 198.982 72.605 211.12 72.605C223.258 72.605 230.354 79.1408 230.354 88.2909C230.354 92.0257 228.113 94.64 223.445 94.64H206.078C184.977 94.64 170.785 106.031 170.785 124.331C170.785 140.577 183.483 152.528 202.157 152.528C215.602 152.528 226.433 146.366 230.354 137.029V151.035H252.949V90.5318C252.949 69.2438 236.143 55.4252 212.241 55.4252ZM207.572 135.535C198.982 135.535 193.007 130.68 193.007 123.397C193.007 115.181 199.543 109.766 209.253 109.766H230.354V111.26C230.354 125.452 221.951 135.535 207.572 135.535Z" fill="#D7DDEA"/>
<path d="M271.433 151.035H294.215V16.584H271.433V151.035Z" fill="#D7DDEA"/>
<path d="M383.253 151.035H406.221V56.9192H383.253V151.035Z" fill="#D7DDEA"/>
<path d="M426.837 151.035H449.805V97.0676C449.805 83.8093 457.462 75.0326 469.6 75.0326C480.617 75.0326 487.526 83.8093 487.526 97.0676V151.035H510.308V97.0676C510.308 83.8093 517.964 75.0326 530.289 75.0326C541.307 75.0326 548.216 83.8093 548.216 97.0676V151.035H570.998V90.1583C570.998 70.1775 557.926 55.4252 537.572 55.4252C522.633 55.4252 510.682 63.6417 506.387 73.352C502.279 61.7743 492.008 55.4252 477.069 55.4252C463.811 55.4252 454.474 62.1478 449.805 71.6714V56.9192H426.837V151.035Z" fill="#D7DDEA"/>
<path d="M653.592 119.663C651.164 128.626 643.508 133.481 631.743 133.481C617.178 133.481 607.468 123.771 605.787 108.645H675.253C675.44 106.778 675.627 103.977 675.627 100.802C675.627 78.3939 661.435 55.4252 629.876 55.4252C599.064 55.4252 583.752 78.7674 583.752 103.603C583.752 128.253 600.932 152.528 631.743 152.528C654.899 152.528 672.452 139.644 676 119.663H653.592ZM629.876 72.605C643.508 72.605 651.724 81.5684 652.658 93.5196H606.347C608.775 79.3276 616.991 72.605 629.876 72.605Z" fill="#D7DDEA"/>
<path d="M315.935 26.0714V55.0262V74.647V117.508C315.935 138.843 329.65 151.035 350.604 151.035H366.034V131.223H353.271C344.508 131.223 339.365 126.27 339.365 116.555V74.647H366.034V55.0262H339.365V26.0714H315.935Z" fill="#D7DDEA"/>
<path d="M375.724 5.17692e-06L374.033 1.69037C380.503 8.15995 383.585 14.4739 383.588 20.6451C383.591 26.8162 380.515 33.1298 374.052 39.5991L374.033 39.6178L375.723 41.3087L375.743 41.2893C382.212 34.8265 388.525 31.751 394.696 31.754C400.868 31.757 407.182 34.8389 413.651 41.3084L415.342 39.6181C408.869 33.1453 405.787 26.8284 405.787 20.6542C405.787 14.48 408.869 8.1631 415.342 1.69037L413.651 0C407.179 6.47273 400.862 9.55443 394.687 9.55443C388.513 9.55443 382.196 6.47273 375.724 5.17692e-06Z" fill="#EC4899"/>
</g>
<defs>
<filter id="filter0_d_134_72" x="0" y="0" width="680" height="160.528" filterUnits="userSpaceOnUse" color-interpolation-filters="sRGB">
<feFlood flood-opacity="0" result="BackgroundImageFix"/>
<feColorMatrix in="SourceAlpha" type="matrix" values="0 0 0 0 0 0 0 0 0 0 0 0 0 0 0 0 0 0 127 0" result="hardAlpha"/>
<feOffset dy="4"/>
<feGaussianBlur stdDeviation="2"/>
<feComposite in2="hardAlpha" operator="out"/>
<feColorMatrix type="matrix" values="0 0 0 0 0 0 0 0 0 0 0 0 0 0 0 0 0 0 0.25 0"/>
<feBlend mode="normal" in2="BackgroundImageFix" result="effect1_dropShadow_134_72"/>
<feBlend mode="normal" in="SourceGraphic" in2="effect1_dropShadow_134_72" result="shape"/>
</filter>
</defs>
</svg>
