<svg width="477" height="261" viewBox="0 0 477 261" fill="none" xmlns="http://www.w3.org/2000/svg">
<path d="M36.8263 260.094C57.3438 260.094 70.8467 249.222 70.8467 232.562C70.8467 192.579 21.9204 213.623 21.9204 194.508C21.9204 188.545 27.0059 185.038 34.5465 185.038C41.5611 185.038 49.1017 189.247 50.1539 197.489H69.9699C69.0931 180.303 54.8887 168.905 34.0205 168.905C15.958 168.905 2.45508 179.777 2.45508 195.209C2.45508 232.562 50.6799 213.798 50.6799 233.439C50.6799 238.7 45.2437 242.908 36.8263 242.908C27.1813 242.908 20.5175 237.647 19.6407 229.23H0C1.05218 248.169 15.432 260.094 36.8263 260.094Z" fill="#D7DDEA"/>
<path d="M85.5679 258.691H107.138V132.429H85.5679V258.691Z" fill="#D7DDEA"/>
<path d="M152.416 260.094C165.042 260.094 175.388 254.307 178.896 245.539V258.691H200.29V201.873C200.29 181.882 184.507 168.905 161.885 168.905C139.088 168.905 124.182 182.583 122.955 200.119H142.42C142.771 192.228 149.61 185.038 161.009 185.038C172.407 185.038 178.896 191.176 178.896 199.769C178.896 203.276 176.791 205.731 172.583 205.731H156.274C136.282 205.731 123.13 216.428 123.13 233.614C123.13 248.871 135.055 260.094 152.416 260.094ZM143.998 232.737C143.998 225.021 149.961 219.936 159.08 219.936H178.896V221.339C178.896 234.666 171.004 244.136 157.501 244.136C149.435 244.136 143.998 239.576 143.998 232.737Z" fill="#D7DDEA"/>
<path d="M217.552 143.652V170.307V188.37V227.827C217.552 247.468 230.178 258.691 249.468 258.691H263.673V240.453H251.923C243.857 240.453 239.122 235.894 239.122 226.95V188.37H263.673V170.307H239.122V143.652H217.552Z" fill="#D7DDEA"/>
<path d="M311.685 260.094C333.43 260.094 349.915 247.994 353.246 229.23H332.203C329.923 237.647 322.733 242.207 311.685 242.207C298.007 242.207 288.888 233.088 287.31 218.883H352.545C352.72 217.13 352.896 214.499 352.896 211.518C352.896 190.474 339.568 168.905 309.932 168.905C280.997 168.905 266.617 190.825 266.617 214.149C266.617 237.297 282.751 260.094 311.685 260.094ZM287.836 204.679C290.116 191.351 297.832 185.038 309.932 185.038C322.733 185.038 330.449 193.456 331.326 204.679H287.836Z" fill="#D7DDEA"/>
<path d="M260.067 0C250.293 0 242.369 7.92377 242.369 17.6982C242.369 27.4727 250.293 35.3965 260.067 35.3965C269.842 35.3965 277.766 27.4727 277.766 17.6982C277.766 7.92377 269.842 0 260.067 0Z" fill="#D7DDEA"/>
<path d="M326.461 0C316.686 0 308.762 7.92377 308.762 17.6982C308.762 27.4727 316.686 35.3965 326.461 35.3965C336.235 35.3965 344.159 27.4727 344.159 17.6982C344.159 7.92377 336.235 0 326.461 0Z" fill="#D7DDEA"/>
<path d="M342.204 64.7183L340.648 66.2744C346.603 72.2302 349.44 78.0427 349.443 83.7239C349.446 89.4049 346.615 95.2171 340.665 101.173L340.648 101.19L342.203 102.746L342.221 102.729C348.177 96.7792 353.989 93.9478 359.67 93.9506C365.351 93.9533 371.164 96.7904 377.119 102.746L378.675 101.19C372.717 95.2314 369.88 89.4161 369.88 83.7323C369.88 78.0484 372.717 72.2331 378.675 66.2744L377.119 64.7183C371.161 70.677 365.345 73.514 359.662 73.514C353.978 73.514 348.162 70.677 342.204 64.7183Z" fill="#D7DDEA"/>
<path d="M293.264 66.3984C283.49 66.3984 275.566 74.3222 275.566 84.0966C275.566 93.8711 283.49 101.795 293.264 101.795C303.038 101.795 310.962 93.8711 310.962 84.0966C310.962 74.3222 303.038 66.3984 293.264 66.3984Z" fill="#D7DDEA"/>
<path d="M426.041 66.3984C416.267 66.3984 408.343 74.3222 408.343 84.0966C408.343 93.8711 416.267 101.795 426.041 101.795C435.816 101.795 443.739 93.8711 443.739 84.0966C443.739 74.3222 435.816 66.3984 426.041 66.3984Z" fill="#D7DDEA"/>
<path d="M392.854 132.777C383.08 132.777 375.156 140.701 375.156 150.476C375.156 160.25 383.08 168.174 392.854 168.174C402.628 168.174 410.552 160.25 410.552 150.476C410.552 140.701 402.628 132.777 392.854 132.777Z" fill="#D7DDEA"/>
<path d="M459.247 132.777C449.473 132.777 441.549 140.701 441.549 150.476C441.549 160.25 449.473 168.174 459.247 168.174C469.022 168.174 476.946 160.25 476.946 150.476C476.946 140.701 469.022 132.777 459.247 132.777Z" fill="#D7DDEA"/>
<path d="M342.203 64.7188L340.647 66.2749C346.603 72.2307 349.44 78.0432 349.443 83.7243C349.445 89.4054 346.614 95.2176 340.664 101.173L340.647 101.19L342.203 102.747L342.221 102.729C348.176 96.7796 353.988 93.9482 359.669 93.951C365.35 93.9538 371.163 96.7909 377.119 102.747L378.675 101.191C372.716 95.2318 369.879 89.4166 369.879 83.7327C369.879 78.0488 372.716 72.2336 378.675 66.2749L377.119 64.7188C371.16 70.6774 365.345 73.5144 359.661 73.5144C353.977 73.5144 348.162 70.6774 342.203 64.7188Z" fill="#EC4899"/>
</svg>
