<svg width="100" height="70" viewBox="0 0 100 70" fill="none" xmlns="http://www.w3.org/2000/svg">
<path d="M10.0831 1C6.17122 1 3 4.17122 3 8.08312C3 11.995 6.17122 15.1662 10.0831 15.1662C13.995 15.1662 17.1662 11.995 17.1662 8.08312C17.1662 4.17122 13.995 1 10.0831 1Z" fill="#D7DDEA"/>
<path d="M36.6548 1C32.7429 1 29.5717 4.17122 29.5717 8.08312C29.5717 11.995 32.7429 15.1662 36.6548 15.1662C40.5667 15.1662 43.7379 11.995 43.7379 8.08312C43.7379 4.17122 40.5667 1 36.6548 1Z" fill="#D7DDEA"/>
<path d="M42.9554 26.9013L42.3326 27.5241C44.7162 29.9077 45.8517 32.234 45.8528 34.5077C45.8539 36.7813 44.7208 39.1074 42.3396 41.4909L42.3327 41.4978L42.9553 42.1208L42.9624 42.1137C45.3459 39.7326 47.6721 38.5994 49.9457 38.6005C52.2194 38.6017 54.5456 39.7371 56.9292 42.1207L57.552 41.4979C55.1672 39.1132 54.0318 36.7858 54.0318 34.511C54.0318 32.2362 55.1672 29.9089 57.552 27.5241L56.9292 26.9013C54.5445 29.2861 52.2171 30.4215 49.9423 30.4215C47.6675 30.4215 45.3402 29.2861 42.9554 26.9013Z" fill="#D7DDEA"/>
<path d="M23.369 27.5737C19.4571 27.5737 16.2858 30.7449 16.2858 34.6568C16.2858 38.5687 19.4571 41.74 23.369 41.74C27.2809 41.74 30.4521 38.5687 30.4521 34.6568C30.4521 30.7449 27.2809 27.5737 23.369 27.5737Z" fill="#D7DDEA"/>
<path d="M76.5085 27.5737C72.5966 27.5737 69.4254 30.7449 69.4254 34.6568C69.4254 38.5687 72.5966 41.74 76.5085 41.74C80.4204 41.74 83.5916 38.5687 83.5916 34.6568C83.5916 30.7449 80.4204 27.5737 76.5085 27.5737Z" fill="#D7DDEA"/>
<path d="M63.2265 54.1396C59.3146 54.1396 56.1434 57.3109 56.1434 61.2228C56.1434 65.1347 59.3146 68.3059 63.2265 68.3059C67.1384 68.3059 70.3096 65.1347 70.3096 61.2228C70.3096 57.3109 67.1384 54.1396 63.2265 54.1396Z" fill="#D7DDEA"/>
<path d="M89.7982 54.1396C85.8863 54.1396 82.7151 57.3109 82.7151 61.2228C82.7151 65.1347 85.8863 68.3059 89.7982 68.3059C93.7101 68.3059 96.8813 65.1347 96.8813 61.2228C96.8813 57.3109 93.7101 54.1396 89.7982 54.1396Z" fill="#D7DDEA"/>
<path d="M42.9553 26.9014L42.3325 27.5242C44.7161 29.9078 45.8516 32.234 45.8527 34.5077C45.8538 36.7814 44.7207 39.1075 42.3395 41.491L42.3326 41.4979L42.9552 42.1208L42.9623 42.1138C45.3458 39.7326 47.6719 38.5995 49.9456 38.6006C52.2193 38.6017 54.5455 39.7371 56.9291 42.1208L57.5519 41.498C55.1671 39.1132 54.0317 36.7858 54.0317 34.5111C54.0317 32.2363 55.1671 29.9089 57.5519 27.5242L56.9291 26.9014C54.5443 29.2861 52.217 30.4215 49.9422 30.4215C47.6674 30.4215 45.3401 29.2861 42.9553 26.9014Z" fill="#EC4899"/>
</svg>
