<svg width="500" height="500" viewBox="0 0 500 500" fill="none" xmlns="http://www.w3.org/2000/svg">
<path d="M20.4603 6.26615e-05L0 20.4603C78.3081 98.768 115.611 175.192 115.647 249.889C115.684 324.584 78.4575 401.004 0.229092 479.308L0.0026318 479.534L20.4575 500L20.6917 499.766C98.9958 421.539 175.415 384.314 250.11 384.35C324.807 384.387 401.231 421.69 479.54 499.997L500 479.537C421.654 401.191 384.353 324.731 384.353 249.999C384.353 175.266 421.654 98.8061 500 20.4602L479.54 0C401.193 78.346 324.733 115.647 250 115.647C175.267 115.647 98.8067 78.346 20.4603 6.26615e-05Z" fill="#EC4899"/>
</svg>
