<svg width="1280" height="720" viewBox="0 0 1280 720" fill="none" xmlns="http://www.w3.org/2000/svg">
<g clip-path="url(#clip0_111_76)">
<rect width="1280" height="720" fill="#020617"/>
<path d="M-344.046 -444L-374 -414.046C-259.357 -299.404 -204.746 -187.519 -204.692 -78.1631C-204.639 31.1907 -259.138 143.069 -373.665 257.707L-373.996 258.038L-344.05 288L-343.707 287.657C-229.07 173.134 -117.192 118.636 -7.8391 118.689C101.518 118.742 213.403 173.354 328.046 287.996L358 258.042C243.301 143.344 188.692 31.4063 188.692 -78.002C188.692 -187.41 243.301 -299.348 358 -414.046L328.046 -444C213.347 -329.302 101.409 -274.693 -8.00001 -274.693C-117.409 -274.693 -229.347 -329.302 -344.046 -444Z" fill="#0F172A"/>
<path d="M-138.391 423L-169 453.609C-51.8511 570.757 3.95397 685.087 4.00853 796.833C4.06327 908.577 -51.6276 1022.9 -168.657 1140.04L-168.996 1140.38L-138.396 1171L-138.045 1170.65C-20.9023 1053.62 93.421 997.934 205.164 997.988C316.912 998.043 431.242 1053.85 548.391 1171L579 1140.39C461.794 1023.18 405.991 908.798 405.991 796.998C405.991 685.198 461.794 570.814 579 453.608L548.391 423C431.185 540.206 316.8 596.008 205 596.008C93.1996 596.008 -21.1852 540.206 -138.391 423Z" fill="#0F172A"/>
<path d="M844.752 146L806 184.752C954.316 333.067 1024.97 477.813 1025.04 619.289C1025.11 760.762 954.598 905.501 806.434 1053.81L806.005 1054.24L844.746 1093L845.19 1092.56C993.498 944.396 1138.24 873.891 1279.71 873.96C1421.19 874.029 1565.93 944.68 1714.25 1092.99L1753 1054.24C1604.61 905.856 1533.96 761.041 1533.96 619.497C1533.96 477.954 1604.61 333.139 1753 184.752L1714.25 146C1565.86 294.387 1421.04 365.035 1279.5 365.035C1137.96 365.035 993.14 294.387 844.752 146Z" fill="#0F172A"/>
</g>
<defs>
<clipPath id="clip0_111_76">
<rect width="1280" height="720" fill="white"/>
</clipPath>
</defs>
</svg>
